<svg width="109" height="107" viewBox="0 0 109 107" fill="none" xmlns="http://www.w3.org/2000/svg">
<path fill-rule="evenodd" clip-rule="evenodd" d="M58.0489 29.6527C57.4685 31.1455 56.6623 32.5404 55.6584 33.7884C56.2839 34.4453 56.9708 35.0408 57.7098 35.5668C58.1245 35.8432 58.5554 36.0946 59.0001 36.3195C61.4249 37.4811 64.1319 37.9232 66.8002 37.5934C66.3648 36.2403 65.671 34.9846 64.7571 33.896C63.0211 31.8202 60.6731 30.3466 58.0489 29.6858M33.2343 11.1658C33.5569 10.9342 33.896 10.7191 34.2352 10.5123C36.0922 9.4029 38.1519 8.67491 40.2936 8.37098C42.4354 8.06704 44.6162 8.19325 46.7086 8.74224C49.8244 9.59413 52.6242 11.3361 54.7651 13.7548C55.2196 13.3851 55.6976 13.0452 56.1961 12.7374C58.4482 11.3192 61.0813 10.6263 63.7397 10.7522C65.5068 10.8755 67.2147 11.4397 68.7074 12.3934C70.2001 13.3471 71.4298 14.6598 72.2842 16.2114C73.4643 18.324 73.832 20.7949 73.3182 23.1595C73.098 24.1212 72.6719 25.0237 72.0693 25.8048C71.4667 26.5859 70.7019 27.227 69.8276 27.6841C68.2344 28.4848 66.3996 28.6618 64.6827 28.1803C63.8359 27.9744 63.0609 27.5425 62.4403 26.9307C61.8198 26.3189 61.3769 25.5501 61.159 24.7063C60.9665 23.9991 60.9653 23.2534 61.1557 22.5456C61.3461 21.8378 61.7212 21.1933 62.2426 20.6781C62.692 20.295 63.2319 20.0332 63.8109 19.9174C64.39 19.8016 64.989 19.8356 65.5512 20.0163L66.3784 20.2397L65.9317 21.894L65.1045 21.6706C64.8124 21.5617 64.4968 21.5311 64.1892 21.5819C63.8816 21.6327 63.5926 21.7631 63.351 21.9601C63.0479 22.278 62.8346 22.6706 62.7329 23.0978C62.6311 23.5251 62.6446 23.9717 62.772 24.392C62.9191 24.9461 63.215 25.4493 63.6276 25.8474C64.0402 26.2454 64.5538 26.523 65.1128 26.6501C66.425 27.021 67.8281 26.8913 69.0501 26.2862C69.7091 25.9374 70.2848 25.4499 70.7375 24.8573C71.1901 24.2647 71.509 23.5811 71.6721 22.8535C72.0957 20.8811 71.7839 18.8219 70.7953 17.0634C70.0898 15.7488 69.0644 14.6331 67.814 13.8192C66.5635 13.0053 65.1282 12.5195 63.6405 12.4065C61.327 12.2964 59.0352 12.8968 57.0729 14.127C56.6382 14.3983 56.221 14.6966 55.8239 15.0203C58.089 17.9131 59.237 21.5246 59.058 25.1943C58.9923 26.1623 58.8288 27.1212 58.57 28.0563C61.4828 28.8215 64.0849 30.4753 66.0144 32.7876C67.1128 34.1137 67.9341 35.6466 68.4297 37.2956C71.2863 36.722 73.9136 35.3279 75.9899 33.2839C77.3585 31.9069 78.4386 30.2708 79.1673 28.4713C79.8959 26.6718 80.2582 24.7451 80.2332 22.8038C80.1008 16.3272 75.8823 10.289 70.6547 6.73225C62.7802 1.38884 53.3755 0.445884 44.4174 3.42364C41.5224 4.41622 35.5669 8.27076 33.226 11.1327L33.2343 11.1658ZM56.9323 27.7089C57.174 26.8441 57.3292 25.9574 57.3955 25.062C57.4285 24.5662 57.4285 24.0688 57.3955 23.5731C57.1859 20.8936 56.2128 18.3302 54.5914 16.1866C53.6417 17.2427 52.9007 18.4693 52.4077 19.8013C51.4815 22.3435 51.3774 25.1125 52.11 27.7171C53.7049 27.4672 55.329 27.4672 56.924 27.7171L56.9323 27.7089ZM54.5418 32.5146C55.2896 31.5344 55.9069 30.4612 56.3781 29.3218C55.1562 29.1646 53.9191 29.1646 52.6972 29.3218C53.1649 30.4654 53.7824 31.5419 54.5335 32.5229L54.5418 32.5146ZM39.3883 19.3298C37.4627 19.9464 35.8296 21.247 34.7976 22.9858C34.0255 24.2586 33.5853 25.7048 33.5174 27.1919C33.4495 28.679 33.756 30.1594 34.4089 31.4972C35.4685 33.5547 37.1307 35.2399 39.1733 36.3278C39.622 36.5704 40.0862 36.7831 40.5629 36.9647C41.9401 33.5553 44.4971 30.7547 47.7674 29.0737C48.6289 28.6515 49.5291 28.3135 50.4556 28.0645C49.6537 25.1511 49.7809 22.06 50.8196 19.2223C51.4235 17.6099 52.3463 16.1358 53.5327 14.888C51.6201 12.7028 49.1145 11.1196 46.3199 10.3304C44.4425 9.83836 42.4859 9.72539 40.5643 9.99807C38.6428 10.2707 36.7949 10.9236 35.1285 11.9185C29.5866 15.2767 26.4682 21.9519 26.0298 28.2548C25.335 37.7422 29.2226 46.3612 36.2948 52.6145C38.5943 54.6493 44.9551 57.8917 48.5615 58.4707C48.1975 58.3053 47.8418 58.1316 47.4944 57.9413C45.6035 56.887 43.9418 55.4661 42.6068 53.7618C41.2717 52.0574 40.29 50.1039 39.7192 48.0155C38.9038 44.892 39.013 41.5989 40.0335 38.5363C36.9617 37.3982 34.4212 35.1612 32.9034 32.2582C32.1279 30.6665 31.764 28.9057 31.8449 27.137C31.9258 25.3683 32.449 23.6481 33.3667 22.1339C34.601 20.0392 36.5612 18.4704 38.8755 17.7251C39.8189 17.4358 40.8138 17.354 41.7918 17.4853C42.7698 17.6167 43.7078 17.9581 44.5415 18.4861C46.0286 19.4682 47.0962 20.9693 47.5358 22.6963C47.7814 23.5289 47.7981 24.4124 47.5841 25.2537C47.3702 26.095 46.9334 26.8631 46.3199 27.4773C45.7985 28.0079 45.1448 28.3896 44.4264 28.583C43.7081 28.7764 42.9511 28.7745 42.2337 28.5774C41.6733 28.3815 41.1732 28.0439 40.7818 27.5975C40.3905 27.151 40.1213 26.611 40.0004 26.0297L39.7936 25.2026L41.4479 24.7807L41.663 25.6079C41.7162 25.9144 41.8477 26.2018 42.0448 26.4424C42.2419 26.683 42.4979 26.8686 42.7879 26.981C43.2151 27.0804 43.6608 27.0671 44.0813 26.9424C44.5019 26.8177 44.8828 26.5859 45.1867 26.2696C45.5915 25.8635 45.8778 25.3547 46.0148 24.7979C46.1518 24.2411 46.1343 23.6575 45.9642 23.1099C45.6347 21.7731 44.8137 20.6095 43.6647 19.8509C43.0326 19.4586 42.3225 19.2087 41.584 19.1187C40.8455 19.0287 40.0962 19.1007 39.3883 19.3298ZM53.4086 33.8133C52.4037 32.5644 51.5949 31.1698 51.0098 29.6775C50.1553 29.9039 49.3244 30.2113 48.5284 30.5956C48.0812 30.8149 47.6476 31.0608 47.2297 31.3318C44.9996 32.8432 43.2488 34.9615 42.1841 37.4362C43.5716 37.7367 45.0043 37.7648 46.4026 37.5189C49.0707 37.0546 51.5232 35.7574 53.4086 33.8133ZM52.5235 49.0412C54.0151 50.4015 55.9558 51.1642 57.9745 51.1835C59.4628 51.2177 60.9359 50.8774 62.2583 50.1938C63.5808 49.5101 64.7102 48.5051 65.5429 47.2711C66.8003 45.3264 67.4297 43.0424 67.3461 40.7283C67.3301 40.2182 67.2803 39.7098 67.1972 39.2063C63.5581 39.7191 59.856 38.9059 56.7668 36.9151C55.9627 36.3732 55.2146 35.7525 54.5335 35.0623C52.4176 37.2284 49.6747 38.6751 46.6921 39.198C44.9955 39.4926 43.2569 39.442 41.5803 39.0491C40.6556 41.808 40.5493 44.7757 41.2742 47.5936C41.7885 49.4653 42.6698 51.2161 43.8669 52.744C45.064 54.2719 46.5529 55.5466 48.2471 56.4938C53.9214 59.5543 61.2665 58.9505 66.9987 56.2457C75.5598 52.1099 81.0603 44.4256 82.9628 35.1698C83.5749 32.159 83.2027 25.0372 81.904 21.621C81.904 22.0181 81.9619 22.4482 81.9702 22.8121C82.0037 24.9748 81.6054 27.1225 80.7987 29.1293C79.992 31.1362 78.793 32.962 77.272 34.4998C74.9701 36.7699 72.0597 38.3242 68.8929 38.9747C68.9929 39.5515 69.051 40.1348 69.0666 40.72C69.1579 43.3806 68.4303 46.005 66.9822 48.2388C65.9936 49.7087 64.6513 50.9063 63.0786 51.7215C61.506 52.5367 59.7537 52.9433 57.9827 52.904C55.5502 52.8749 53.2131 51.9536 51.4151 50.315C50.6926 49.6436 50.1245 48.8232 49.7503 47.9105C49.3761 46.9979 49.2047 46.0149 49.248 45.0295C49.3508 43.2509 50.115 41.5751 51.3903 40.3312C51.9916 39.7019 52.7517 39.2466 53.5904 39.0137C54.429 38.7807 55.315 38.7787 56.1547 39.0078C56.8765 39.1943 57.5354 39.5701 58.0633 40.0965C58.5912 40.623 58.9688 41.2808 59.1573 42.0021C59.2655 42.5845 59.2219 43.185 59.0307 43.7456C58.8394 44.3063 58.507 44.8083 58.0655 45.2032L57.4699 45.7904L56.2457 44.5414L56.8495 43.9459C57.0868 43.7471 57.2687 43.4902 57.3774 43.2004C57.4861 42.9105 57.518 42.5974 57.4699 42.2916C57.3451 41.8707 57.111 41.4905 56.7913 41.1897C56.4716 40.8889 56.0778 40.6783 55.6502 40.5794C55.0964 40.4291 54.512 40.4338 53.9607 40.5927C53.4094 40.7517 52.9123 41.059 52.5235 41.481C51.5482 42.4292 50.9588 43.7052 50.8692 45.0626C50.8398 45.806 50.9726 46.547 51.2583 47.234C51.5439 47.9211 51.9757 48.5377 52.5235 49.0412ZM24.1687 30.4633C24.199 36.7371 26.1568 42.85 29.7768 47.9741C30.7717 49.4079 31.9018 50.743 33.1516 51.961C33.5404 52.3084 33.9043 52.7882 34.5743 53.3424C34.7894 53.5243 34.8721 53.5409 35.0871 53.7229C38.9012 56.9709 43.4731 59.2042 48.3795 60.216C52.0272 61.0432 54.1696 60.8695 57.7925 60.704C60.8995 60.3225 63.934 59.4893 66.8002 58.2308C68.501 57.5136 70.1181 56.6121 71.6225 55.5426L76.1884 51.7377L76.6185 51.2662L77.5201 50.2736L78.7195 48.8013C80.5158 46.4534 81.9439 43.8455 82.9545 41.0674C83.6367 39.2188 84.1461 37.3109 84.4765 35.3683C84.8564 33.1565 84.9703 30.9072 84.8156 28.6684C84.5481 24.0732 83.2475 19.5975 81.0107 15.5745L79.5715 13.2337C79.3068 12.8615 79.0669 12.4975 78.7443 12.1088C78.4217 11.72 78.248 11.4636 77.9171 11.0914L77.0404 10.0657C75.5524 8.44218 73.9065 6.97086 72.1271 5.67349L71.0104 4.91251C70.2696 4.41317 69.5019 3.95479 68.7109 3.53944C68.2725 3.31611 67.9582 3.17549 67.5116 2.95216C65.3788 1.88548 63.1151 1.10401 60.7785 0.627857C54.3403 -0.691013 47.6492 0.0798124 41.6795 2.82809C40.0399 3.60507 38.4684 4.51814 36.9813 5.55769C36.5677 5.83893 36.2782 6.10361 35.8977 6.38485C34.5175 7.43564 33.2457 8.62159 32.1011 9.92507C31.8033 10.2559 31.5221 10.5289 31.274 10.868C29.0253 13.6035 27.2551 16.6993 26.0381 20.0246C25.8809 20.4961 25.7238 20.9014 25.5997 21.3481C24.9954 23.2656 24.5825 25.2384 24.3672 27.2374L24.2431 29.7189C24.2431 29.876 24.2431 29.9422 24.2431 30.0414C24.1986 30.1778 24.1735 30.3199 24.1687 30.4633Z" fill="#F78D1E"/>
<path fill-rule="evenodd" clip-rule="evenodd" d="M103.717 82.0114H101.235V72.83C103.543 72.83 105.073 72.5322 106.488 74.0459C108.142 75.816 108.026 82.0114 103.684 82.0114M99.7878 83.3762C103.403 83.3762 106.926 83.98 108.49 80.2744C109.441 78.0328 109.093 74.2527 107.191 72.7224C105.288 71.1922 102.625 71.4734 99.7878 71.4734V83.3762Z" fill="#F78D1E"/>
<path fill-rule="evenodd" clip-rule="evenodd" d="M54.8479 76.6099H53.9132V72.7389L55.1291 72.7885C56.7834 72.9374 56.9571 73.4916 56.9571 75.0466C56.9571 76.2295 55.9894 76.6099 54.8479 76.6099ZM52.4988 83.3761H53.9215V77.7514C54.3516 77.8424 54.426 78.0326 55.1788 79.0418C55.5427 79.5298 55.8405 79.9599 56.2044 80.4397C56.9493 81.3647 57.6371 82.3343 58.264 83.343H60.1334C59.3063 82.0857 56.2706 78.3801 55.9232 77.7431C56.3045 77.7277 56.6787 77.6353 57.0233 77.4715C57.3679 77.3077 57.6758 77.0759 57.9285 76.7899C58.1812 76.504 58.3734 76.1699 58.4936 75.8078C58.6138 75.4457 58.6595 75.0629 58.628 74.6827C58.628 71.1011 55.063 71.4402 52.4988 71.4402V83.3761Z" fill="#F78D1E"/>
<path fill-rule="evenodd" clip-rule="evenodd" d="M70.2251 78.5786L72.0366 74.5586L73.848 78.5786H70.2251ZM75.8415 83.3926H77.4958L72.0366 71.5312L66.5691 83.3761H68.2234L69.5551 80.1502H74.518L75.8415 83.3926Z" fill="#F78D1E"/>
<path fill-rule="evenodd" clip-rule="evenodd" d="M85.4451 71.4736H87.0828V81.689H90.9208V83.3598H87.0828V83.3764H85.4451V71.4736Z" fill="#F78D1E"/>
<path fill-rule="evenodd" clip-rule="evenodd" d="M38.1981 71.5312V71.5478H42.7309V73.2104H38.1981V75.8986H42.7309V77.5612H38.1981V81.7466H42.7309V83.4174H38.1981V83.4257H36.5603V71.5312H38.1981Z" fill="#F78D1E"/>
<path fill-rule="evenodd" clip-rule="evenodd" d="M20.9516 80.3987L25.6995 71.2586L27.2463 83.2854L25.6168 83.4839L24.8227 75.717L20.9516 83.2441L17.428 75.841L16.6008 83.426L14.9713 83.2275L16.5181 71.209L20.9516 80.3987Z" fill="#F78D1E"/>
<path fill-rule="evenodd" clip-rule="evenodd" d="M1.64579 71.5312V71.5478H6.17032V73.2104H1.64579V75.8986H6.17032V77.5612H1.64579V81.7466H6.17032V83.4174H1.64579V83.4257H-0.000244141V71.5312H1.64579Z" fill="#F78D1E"/>
<rect x="0.499756" y="89.5" width="108" height="17" rx="2.07143" stroke="#606060"/>
<path d="M-0.000244141 91.5714C-0.000244141 90.1513 1.15102 89 2.57118 89H44.5712V107H2.57119C1.15103 107 -0.000244141 105.849 -0.000244141 104.429V91.5714Z" fill="white"/>
<path d="M6.12552 102.429H4.55855L7.41154 94.3248H9.22383L12.0808 102.429H10.5138L8.34934 95.9867H8.28603L6.12552 102.429ZM6.17696 99.2513H10.4505V100.43H6.17696V99.2513ZM15.1553 102.536C14.6779 102.536 14.2505 102.413 13.8733 102.168C13.4961 101.922 13.198 101.566 12.979 101.099C12.7601 100.632 12.6506 100.065 12.6506 99.3977C12.6506 98.7223 12.7614 98.1525 12.983 97.6882C13.2072 97.2213 13.5092 96.8692 13.8891 96.6317C14.269 96.3917 14.6924 96.2716 15.1593 96.2716C15.5154 96.2716 15.8083 96.3323 16.0378 96.4537C16.2673 96.5724 16.4493 96.7161 16.5838 96.885C16.7184 97.0512 16.8226 97.2081 16.8964 97.3559H16.9558V94.3248H18.3922V102.429H16.9835V101.471H16.8964C16.8226 101.619 16.7157 101.776 16.5759 101.942C16.4361 102.106 16.2514 102.245 16.0219 102.361C15.7924 102.478 15.5036 102.536 15.1553 102.536ZM15.555 101.36C15.8584 101.36 16.1169 101.279 16.3306 101.115C16.5442 100.949 16.7065 100.718 16.8173 100.423C16.9281 100.127 16.9835 99.7828 16.9835 99.3897C16.9835 98.9967 16.9281 98.6551 16.8173 98.3649C16.7091 98.0747 16.5482 97.8492 16.3345 97.6882C16.1235 97.5273 15.8636 97.4469 15.555 97.4469C15.2358 97.4469 14.9694 97.53 14.7557 97.6962C14.542 97.8624 14.3811 98.0919 14.2729 98.3847C14.1648 98.6775 14.1107 99.0125 14.1107 99.3897C14.1107 99.7696 14.1648 100.109 14.2729 100.407C14.3837 100.702 14.546 100.936 14.7597 101.107C14.976 101.276 15.2411 101.36 15.555 101.36ZM19.9186 102.429V96.3508H21.2877V97.3836H21.3589C21.4855 97.0353 21.6952 96.7636 21.9881 96.5684C22.2809 96.3706 22.6304 96.2716 23.0367 96.2716C23.4482 96.2716 23.7951 96.3719 24.0774 96.5724C24.3623 96.7702 24.5627 97.0406 24.6788 97.3836H24.7421C24.8767 97.0459 25.1035 96.7768 25.4227 96.5763C25.7446 96.3732 26.1257 96.2716 26.5663 96.2716C27.1255 96.2716 27.5819 96.4484 27.9354 96.8019C28.2889 97.1554 28.4656 97.6711 28.4656 98.3491V102.429H27.0293V98.5707C27.0293 98.1934 26.929 97.9178 26.7285 97.7436C26.528 97.5669 26.2827 97.4785 25.9925 97.4785C25.647 97.4785 25.3766 97.5867 25.1813 97.803C24.9888 98.0167 24.8925 98.295 24.8925 98.6379V102.429H23.4878V98.5113C23.4878 98.1974 23.3928 97.9468 23.2029 97.7595C23.0156 97.5722 22.7702 97.4785 22.4669 97.4785C22.2611 97.4785 22.0738 97.5313 21.905 97.6368C21.7361 97.7397 21.6016 97.8861 21.5014 98.076C21.4011 98.2633 21.351 98.4823 21.351 98.7329V102.429H19.9186ZM29.9188 102.429V96.3508H31.3513V102.429H29.9188ZM30.639 95.4882C30.4121 95.4882 30.2169 95.413 30.0534 95.2626C29.8898 95.1096 29.808 94.9263 29.808 94.7126C29.808 94.4963 29.8898 94.3129 30.0534 94.1626C30.2169 94.0096 30.4121 93.9331 30.639 93.9331C30.8685 93.9331 31.0637 94.0096 31.2246 94.1626C31.3882 94.3129 31.47 94.4963 31.47 94.7126C31.47 94.9263 31.3882 95.1096 31.2246 95.2626C31.0637 95.413 30.8685 95.4882 30.639 95.4882ZM34.2567 98.8674V102.429H32.8243V96.3508H34.1934V97.3836H34.2646C34.4044 97.0433 34.6273 96.7729 34.9333 96.5724C35.242 96.3719 35.6232 96.2716 36.0769 96.2716C36.4963 96.2716 36.8617 96.3613 37.173 96.5407C37.4869 96.7201 37.7296 96.9799 37.9011 97.3202C38.0752 97.6605 38.1609 98.0734 38.1583 98.5588V102.429H36.7258V98.7804C36.7258 98.3741 36.6203 98.0562 36.4093 97.8267C36.2009 97.5972 35.912 97.4825 35.5427 97.4825C35.2921 97.4825 35.0692 97.5379 34.874 97.6487C34.6814 97.7568 34.5297 97.9138 34.4189 98.1196C34.3108 98.3253 34.2567 98.5746 34.2567 98.8674Z" fill="#262626"/>
<path d="M53.1248 101H50.8804V93.7273H53.2242C53.9297 93.7273 54.5334 93.8729 55.0353 94.1641C55.5372 94.4529 55.9219 94.8684 56.1894 95.4105C56.4569 95.9503 56.5907 96.5966 56.5907 97.3494C56.5907 98.107 56.4557 98.7592 56.1858 99.3061C55.9159 99.8506 55.523 100.27 55.0069 100.563C54.4908 100.854 53.8634 101 53.1248 101ZM51.7611 100.219H53.0679C53.6693 100.219 54.1676 100.103 54.563 99.8707C54.9583 99.6387 55.2531 99.3085 55.4472 98.88C55.6413 98.4515 55.7384 97.9413 55.7384 97.3494C55.7384 96.7623 55.6425 96.2569 55.4508 95.8331C55.259 95.407 54.9725 95.0803 54.5914 94.853C54.2102 94.6233 53.7356 94.5085 53.1674 94.5085H51.7611V100.219ZM59.5594 101.128C59.2138 101.128 58.9001 101.063 58.6184 100.933C58.3366 100.8 58.1129 100.609 57.9472 100.361C57.7815 100.11 57.6986 99.8068 57.6986 99.4517C57.6986 99.1392 57.7602 98.8859 57.8833 98.6918C58.0064 98.4953 58.1709 98.3414 58.3769 98.2301C58.5829 98.1188 58.8101 98.036 59.0587 97.9815C59.3097 97.9247 59.5618 97.8797 59.8151 97.8466C60.1465 97.804 60.4152 97.772 60.6212 97.7507C60.8295 97.727 60.9811 97.688 61.0758 97.6335C61.1728 97.5791 61.2213 97.4844 61.2213 97.3494V97.321C61.2213 96.9706 61.1255 96.6984 60.9337 96.5043C60.7443 96.3101 60.4567 96.2131 60.0708 96.2131C59.6707 96.2131 59.357 96.3007 59.1297 96.4759C58.9025 96.651 58.7427 96.8381 58.6503 97.0369L57.8549 96.7528C57.9969 96.4214 58.1863 96.1634 58.4231 95.9787C58.6622 95.7917 58.9226 95.6615 59.2043 95.5881C59.4884 95.5123 59.7677 95.4744 60.0424 95.4744C60.2176 95.4744 60.4188 95.4957 60.6461 95.5384C60.8757 95.5786 61.0971 95.6626 61.3101 95.7905C61.5256 95.9183 61.7043 96.1113 61.8463 96.3693C61.9884 96.6274 62.0594 96.973 62.0594 97.4062V101H61.2213V100.261H61.1787C61.1219 100.38 61.0272 100.506 60.8946 100.641C60.7621 100.776 60.5857 100.891 60.3655 100.986C60.1454 101.08 59.8766 101.128 59.5594 101.128ZM59.6873 100.375C60.0187 100.375 60.2981 100.31 60.5253 100.18C60.755 100.049 60.9278 99.8814 61.0438 99.6754C61.1622 99.4695 61.2213 99.2528 61.2213 99.0256V98.2585C61.1858 98.3011 61.1077 98.3402 60.987 98.3757C60.8686 98.4089 60.7313 98.4384 60.575 98.4645C60.4212 98.4882 60.2708 98.5095 60.124 98.5284C59.9796 98.545 59.8624 98.5592 59.7725 98.571C59.5547 98.5994 59.3511 98.6456 59.1617 98.7095C58.9747 98.7711 58.8231 98.8646 58.7071 98.9901C58.5935 99.1132 58.5367 99.2812 58.5367 99.4943C58.5367 99.7855 58.6444 100.006 58.8598 100.155C59.0776 100.302 59.3534 100.375 59.6873 100.375ZM67.4527 96.767L66.6999 96.9801C66.6525 96.8546 66.5827 96.7327 66.4903 96.6143C66.4004 96.4936 66.2773 96.3942 66.121 96.3161C65.9648 96.2379 65.7647 96.1989 65.5209 96.1989C65.1871 96.1989 64.9089 96.2758 64.6864 96.4297C64.4662 96.5812 64.3561 96.7741 64.3561 97.0085C64.3561 97.2169 64.4319 97.3814 64.5834 97.5021C64.7349 97.6229 64.9716 97.7235 65.2936 97.804L66.1033 98.0028C66.591 98.1212 66.9544 98.3023 67.1935 98.5462C67.4326 98.7876 67.5521 99.099 67.5521 99.4801C67.5521 99.7926 67.4622 100.072 67.2822 100.318C67.1047 100.564 66.8561 100.759 66.5365 100.901C66.2169 101.043 65.8452 101.114 65.4215 101.114C64.8651 101.114 64.4046 100.993 64.0401 100.751C63.6755 100.51 63.4447 100.157 63.3476 99.6932L64.143 99.4943C64.2188 99.7879 64.362 100.008 64.5727 100.155C64.7858 100.302 65.064 100.375 65.4072 100.375C65.7979 100.375 66.108 100.292 66.3376 100.126C66.5697 99.9583 66.6857 99.7571 66.6857 99.5227C66.6857 99.3333 66.6194 99.1747 66.4868 99.0469C66.3542 98.9167 66.1506 98.8196 65.876 98.7557L64.9669 98.5426C64.4674 98.4242 64.1004 98.2408 63.8661 97.9922C63.634 97.7412 63.518 97.4276 63.518 97.0511C63.518 96.7434 63.6045 96.4711 63.7773 96.2344C63.9525 95.9976 64.1904 95.8118 64.4911 95.6768C64.7941 95.5419 65.1374 95.4744 65.5209 95.4744C66.0607 95.4744 66.4844 95.5928 66.7922 95.8295C67.1023 96.0663 67.3225 96.3788 67.4527 96.767ZM69.6517 97.7188V101H68.8137V93.7273H69.6517V96.3977H69.7228C69.8506 96.116 70.0424 95.8923 70.2981 95.7266C70.5561 95.5585 70.8994 95.4744 71.3279 95.4744C71.6996 95.4744 72.0251 95.549 72.3044 95.6982C72.5838 95.8449 72.8004 96.071 72.9543 96.3764C73.1106 96.6795 73.1887 97.0653 73.1887 97.5341V101H72.3506V97.5909C72.3506 97.1577 72.2382 96.8227 72.0133 96.5859C71.7907 96.3468 71.4818 96.2273 71.0864 96.2273C70.8118 96.2273 70.5656 96.2853 70.3478 96.4013C70.1323 96.5173 69.9619 96.6866 69.8364 96.9091C69.7133 97.1316 69.6517 97.4015 69.6517 97.7188ZM74.8355 101V93.7273H75.6736V96.4119H75.7446C75.8062 96.3172 75.8914 96.1965 76.0003 96.0497C76.1116 95.9006 76.2702 95.768 76.4761 95.652C76.6845 95.5336 76.9662 95.4744 77.3213 95.4744C77.7806 95.4744 78.1854 95.5893 78.5358 95.8189C78.8862 96.0485 79.1596 96.3741 79.3561 96.7955C79.5526 97.2169 79.6509 97.714 79.6509 98.2869C79.6509 98.8646 79.5526 99.3653 79.3561 99.7891C79.1596 100.21 78.8874 100.537 78.5394 100.769C78.1913 100.999 77.7901 101.114 77.3355 101.114C76.9851 101.114 76.7046 101.056 76.4939 100.94C76.2832 100.821 76.121 100.687 76.0074 100.538C75.8938 100.387 75.8062 100.261 75.7446 100.162H75.6452V101H74.8355ZM75.6594 98.2727C75.6594 98.6847 75.7197 99.0481 75.8405 99.3629C75.9612 99.6754 76.1376 99.9205 76.3696 100.098C76.6016 100.273 76.8857 100.361 77.2219 100.361C77.5723 100.361 77.8646 100.268 78.099 100.084C78.3358 99.8968 78.5133 99.6458 78.6317 99.331C78.7524 99.0137 78.8128 98.661 78.8128 98.2727C78.8128 97.8892 78.7536 97.5436 78.6352 97.2358C78.5192 96.9257 78.3429 96.6806 78.1061 96.5007C77.8717 96.3184 77.577 96.2273 77.2219 96.2273C76.881 96.2273 76.5945 96.3137 76.3625 96.4865C76.1305 96.657 75.9553 96.8961 75.8369 97.2038C75.7186 97.5092 75.6594 97.8655 75.6594 98.2727ZM83.1487 101.114C82.6563 101.114 82.2242 100.996 81.8526 100.762C81.4832 100.528 81.1944 100.2 80.9861 99.7784C80.7801 99.357 80.6771 98.8646 80.6771 98.3011C80.6771 97.733 80.7801 97.237 80.9861 96.8132C81.1944 96.3894 81.4832 96.0604 81.8526 95.826C82.2242 95.5916 82.6563 95.4744 83.1487 95.4744C83.6412 95.4744 84.072 95.5916 84.4413 95.826C84.813 96.0604 85.1019 96.3894 85.3078 96.8132C85.5162 97.237 85.6203 97.733 85.6203 98.3011C85.6203 98.8646 85.5162 99.357 85.3078 99.7784C85.1019 100.2 84.813 100.528 84.4413 100.762C84.072 100.996 83.6412 101.114 83.1487 101.114ZM83.1487 100.361C83.5228 100.361 83.8305 100.265 84.072 100.073C84.3135 99.8814 84.4922 99.6293 84.6082 99.3168C84.7242 99.0043 84.7822 98.6657 84.7822 98.3011C84.7822 97.9366 84.7242 97.5968 84.6082 97.282C84.4922 96.9671 84.3135 96.7126 84.072 96.5185C83.8305 96.3243 83.5228 96.2273 83.1487 96.2273C82.7747 96.2273 82.4669 96.3243 82.2254 96.5185C81.984 96.7126 81.8052 96.9671 81.6892 97.282C81.5732 97.5968 81.5152 97.9366 81.5152 98.3011C81.5152 98.6657 81.5732 99.0043 81.6892 99.3168C81.8052 99.6293 81.984 99.8814 82.2254 100.073C82.4669 100.265 82.7747 100.361 83.1487 100.361ZM88.5047 101.128C88.1591 101.128 87.8454 101.063 87.5637 100.933C87.282 100.8 87.0582 100.609 86.8925 100.361C86.7268 100.11 86.6439 99.8068 86.6439 99.4517C86.6439 99.1392 86.7055 98.8859 86.8286 98.6918C86.9517 98.4953 87.1162 98.3414 87.3222 98.2301C87.5282 98.1188 87.7554 98.036 88.004 97.9815C88.255 97.9247 88.5071 97.8797 88.7604 97.8466C89.0918 97.804 89.3606 97.772 89.5665 97.7507C89.7749 97.727 89.9264 97.688 90.0211 97.6335C90.1181 97.5791 90.1667 97.4844 90.1667 97.3494V97.321C90.1667 96.9706 90.0708 96.6984 89.879 96.5043C89.6896 96.3101 89.402 96.2131 89.0161 96.2131C88.616 96.2131 88.3023 96.3007 88.075 96.4759C87.8478 96.651 87.688 96.8381 87.5956 97.0369L86.8002 96.7528C86.9422 96.4214 87.1316 96.1634 87.3684 95.9787C87.6075 95.7917 87.8679 95.6615 88.1496 95.5881C88.4337 95.5123 88.7131 95.4744 88.9877 95.4744C89.1629 95.4744 89.3641 95.4957 89.5914 95.5384C89.821 95.5786 90.0424 95.6626 90.2554 95.7905C90.4709 95.9183 90.6496 96.1113 90.7917 96.3693C90.9337 96.6274 91.0047 96.973 91.0047 97.4062V101H90.1667V100.261H90.124C90.0672 100.38 89.9725 100.506 89.84 100.641C89.7074 100.776 89.531 100.891 89.3108 100.986C89.0907 101.08 88.822 101.128 88.5047 101.128ZM88.6326 100.375C88.964 100.375 89.2434 100.31 89.4706 100.18C89.7003 100.049 89.8731 99.8814 89.9891 99.6754C90.1075 99.4695 90.1667 99.2528 90.1667 99.0256V98.2585C90.1311 98.3011 90.053 98.3402 89.9323 98.3757C89.8139 98.4089 89.6766 98.4384 89.5204 98.4645C89.3665 98.4882 89.2161 98.5095 89.0694 98.5284C88.9249 98.545 88.8078 98.5592 88.7178 98.571C88.5 98.5994 88.2964 98.6456 88.107 98.7095C87.92 98.7711 87.7685 98.8646 87.6525 98.9901C87.5388 99.1132 87.482 99.2812 87.482 99.4943C87.482 99.7855 87.5897 100.006 87.8052 100.155C88.023 100.302 88.2988 100.375 88.6326 100.375ZM92.5344 101V95.5455H93.344V96.3693H93.4009C93.5003 96.0994 93.6802 95.8804 93.9406 95.7124C94.201 95.5443 94.4946 95.4602 94.8213 95.4602C94.8829 95.4602 94.9598 95.4614 95.0521 95.4638C95.1445 95.4661 95.2143 95.4697 95.2617 95.4744V96.3267C95.2332 96.3196 95.1681 96.3089 95.0663 96.2947C94.9669 96.2782 94.8616 96.2699 94.7503 96.2699C94.4851 96.2699 94.2484 96.3255 94.0401 96.4368C93.8341 96.5457 93.6707 96.6972 93.55 96.8913C93.4316 97.0831 93.3724 97.3021 93.3724 97.5483V101H92.5344ZM98.1487 101.114C97.6942 101.114 97.2929 100.999 96.9449 100.769C96.5969 100.537 96.3246 100.21 96.1281 99.7891C95.9316 99.3653 95.8334 98.8646 95.8334 98.2869C95.8334 97.714 95.9316 97.2169 96.1281 96.7955C96.3246 96.3741 96.5981 96.0485 96.9484 95.8189C97.2988 95.5893 97.7037 95.4744 98.1629 95.4744C98.518 95.4744 98.7986 95.5336 99.0045 95.652C99.2129 95.768 99.3715 95.9006 99.4804 96.0497C99.5917 96.1965 99.6781 96.3172 99.7396 96.4119H99.8107V93.7273H100.649V101H99.8391V100.162H99.7396C99.6781 100.261 99.5905 100.387 99.4769 100.538C99.3632 100.687 99.201 100.821 98.9903 100.94C98.7796 101.056 98.4991 101.114 98.1487 101.114ZM98.2624 100.361C98.5985 100.361 98.8826 100.273 99.1146 100.098C99.3466 99.9205 99.523 99.6754 99.6438 99.3629C99.7645 99.0481 99.8249 98.6847 99.8249 98.2727C99.8249 97.8655 99.7657 97.5092 99.6473 97.2038C99.5289 96.8961 99.3537 96.657 99.1217 96.4865C98.8897 96.3137 98.6033 96.2273 98.2624 96.2273C97.9072 96.2273 97.6113 96.3184 97.3746 96.5007C97.1402 96.6806 96.9638 96.9257 96.8455 97.2358C96.7295 97.5436 96.6715 97.8892 96.6715 98.2727C96.6715 98.661 96.7306 99.0137 96.849 99.331C96.9697 99.6458 97.1473 99.8968 97.3817 100.084C97.6184 100.268 97.912 100.361 98.2624 100.361Z" fill="white"/>
</svg>
